<mxfile host="app.diagrams.net" agent="Mozilla/5.0 (Macintosh; Intel Mac OS X 10_15_7) AppleWebKit/537.36 (KHTML, like Gecko) Chrome/135.0.0.0 Safari/537.36 Edg/135.0.0.0" version="26.2.9">
  <diagram name="Page-1" id="fmwd5HYdXAfNKFxQ5Z8n">
    <mxGraphModel dx="2405" dy="1830" grid="1" gridSize="10" guides="1" tooltips="1" connect="1" arrows="1" fold="1" page="1" pageScale="1" pageWidth="850" pageHeight="1100" math="0" shadow="0">
      <root>
        <mxCell id="0" />
        <mxCell id="1" parent="0" />
        <mxCell id="9ja5oFmownrn2EeYEFFG-115" value="API Services" style="whiteSpace=wrap;strokeWidth=2;" vertex="1" parent="1">
          <mxGeometry x="1111" y="764" width="1581" height="104" as="geometry" />
        </mxCell>
        <mxCell id="9ja5oFmownrn2EeYEFFG-116" value="Reusable Components" style="whiteSpace=wrap;strokeWidth=2;verticalAlign=top;" vertex="1" parent="1">
          <mxGeometry x="810" y="149" width="279" height="436" as="geometry" />
        </mxCell>
        <mxCell id="9ja5oFmownrn2EeYEFFG-117" value="Header/Navigation" style="whiteSpace=wrap;strokeWidth=2;" vertex="1" parent="9ja5oFmownrn2EeYEFFG-116">
          <mxGeometry x="50" y="43" width="196" height="54" as="geometry" />
        </mxCell>
        <mxCell id="9ja5oFmownrn2EeYEFFG-118" value="Restaurant Card" style="whiteSpace=wrap;strokeWidth=2;" vertex="1" parent="9ja5oFmownrn2EeYEFFG-116">
          <mxGeometry x="60" y="147" width="175" height="54" as="geometry" />
        </mxCell>
        <mxCell id="9ja5oFmownrn2EeYEFFG-119" value="Date &amp; Time Pickers" style="whiteSpace=wrap;strokeWidth=2;" vertex="1" parent="9ja5oFmownrn2EeYEFFG-116">
          <mxGeometry x="46" y="251" width="204" height="54" as="geometry" />
        </mxCell>
        <mxCell id="9ja5oFmownrn2EeYEFFG-120" value="Rating Components" style="whiteSpace=wrap;strokeWidth=2;" vertex="1" parent="9ja5oFmownrn2EeYEFFG-116">
          <mxGeometry x="48" y="355" width="198" height="54" as="geometry" />
        </mxCell>
        <mxCell id="9ja5oFmownrn2EeYEFFG-121" value="Main Pages" style="whiteSpace=wrap;strokeWidth=2;" vertex="1" parent="1">
          <mxGeometry x="1124" y="124" width="1649" height="486" as="geometry" />
        </mxCell>
        <mxCell id="9ja5oFmownrn2EeYEFFG-122" value="App + Router" style="whiteSpace=wrap;strokeWidth=2;" vertex="1" parent="1">
          <mxGeometry x="1093" y="20" width="153" height="54" as="geometry" />
        </mxCell>
        <mxCell id="9ja5oFmownrn2EeYEFFG-123" value="Auth Context" style="whiteSpace=wrap;strokeWidth=2;" vertex="1" parent="1">
          <mxGeometry x="2229" y="660" width="154" height="54" as="geometry" />
        </mxCell>
        <mxCell id="9ja5oFmownrn2EeYEFFG-124" value="Home/Search" style="whiteSpace=wrap;strokeWidth=2;" vertex="1" parent="1">
          <mxGeometry x="1159" y="340" width="157" height="54" as="geometry" />
        </mxCell>
        <mxCell id="9ja5oFmownrn2EeYEFFG-125" value="Login/Register" style="whiteSpace=wrap;strokeWidth=2;" vertex="1" parent="1">
          <mxGeometry x="1379" y="340" width="164" height="54" as="geometry" />
        </mxCell>
        <mxCell id="9ja5oFmownrn2EeYEFFG-126" value="Restaurant Details" style="whiteSpace=wrap;strokeWidth=2;" vertex="1" parent="1">
          <mxGeometry x="1594" y="340" width="191" height="54" as="geometry" />
        </mxCell>
        <mxCell id="9ja5oFmownrn2EeYEFFG-127" value="Booking Page" style="whiteSpace=wrap;strokeWidth=2;" vertex="1" parent="1">
          <mxGeometry x="1834" y="340" width="154" height="54" as="geometry" />
        </mxCell>
        <mxCell id="9ja5oFmownrn2EeYEFFG-128" value="User Profile/Bookings" style="whiteSpace=wrap;strokeWidth=2;" vertex="1" parent="1">
          <mxGeometry x="2038" y="340" width="214" height="54" as="geometry" />
        </mxCell>
        <mxCell id="9ja5oFmownrn2EeYEFFG-129" value="Admin Dashboard" style="whiteSpace=wrap;strokeWidth=2;" vertex="1" parent="1">
          <mxGeometry x="2302" y="340" width="184" height="54" as="geometry" />
        </mxCell>
        <mxCell id="9ja5oFmownrn2EeYEFFG-130" value="Restaurant Manager" style="whiteSpace=wrap;strokeWidth=2;" vertex="1" parent="1">
          <mxGeometry x="2537" y="340" width="202" height="54" as="geometry" />
        </mxCell>
        <mxCell id="9ja5oFmownrn2EeYEFFG-131" value="API Client (Axios)" style="whiteSpace=wrap;strokeWidth=2;" vertex="1" parent="1">
          <mxGeometry x="880" y="800" width="184" height="54" as="geometry" />
        </mxCell>
        <mxCell id="9ja5oFmownrn2EeYEFFG-132" value="Auth Service" style="whiteSpace=wrap;strokeWidth=2;" vertex="1" parent="1">
          <mxGeometry x="1990" y="789" width="150" height="54" as="geometry" />
        </mxCell>
        <mxCell id="9ja5oFmownrn2EeYEFFG-133" value="Restaurant Service" style="whiteSpace=wrap;strokeWidth=2;" vertex="1" parent="1">
          <mxGeometry x="2241" y="789" width="194" height="54" as="geometry" />
        </mxCell>
        <mxCell id="9ja5oFmownrn2EeYEFFG-134" value="Booking Service" style="whiteSpace=wrap;strokeWidth=2;" vertex="1" parent="1">
          <mxGeometry x="2485" y="789" width="172" height="54" as="geometry" />
        </mxCell>
        <mxCell id="9ja5oFmownrn2EeYEFFG-135" value="Spring Boot Backend" style="whiteSpace=wrap;strokeWidth=2;" vertex="1" parent="1">
          <mxGeometry x="869" y="910" width="206" height="54" as="geometry" />
        </mxCell>
        <mxCell id="9ja5oFmownrn2EeYEFFG-136" value="" style="curved=1;startArrow=none;endArrow=block;exitX=0.99;exitY=0.55;entryX=1;entryY=0.35;rounded=0;" edge="1" parent="1" source="9ja5oFmownrn2EeYEFFG-122" target="9ja5oFmownrn2EeYEFFG-123">
          <mxGeometry relative="1" as="geometry">
            <Array as="points">
              <mxPoint x="2793" y="99" />
              <mxPoint x="2793" y="635" />
            </Array>
          </mxGeometry>
        </mxCell>
        <mxCell id="9ja5oFmownrn2EeYEFFG-137" value="" style="curved=1;startArrow=none;endArrow=block;exitX=0.5;exitY=1;entryX=0.5;entryY=0;rounded=0;" edge="1" parent="1" source="9ja5oFmownrn2EeYEFFG-131" target="9ja5oFmownrn2EeYEFFG-135">
          <mxGeometry relative="1" as="geometry">
            <Array as="points" />
          </mxGeometry>
        </mxCell>
        <mxCell id="9ja5oFmownrn2EeYEFFG-138" value="" style="curved=1;startArrow=none;endArrow=block;exitX=0.5;exitY=1;entryX=0;entryY=0.35;rounded=0;" edge="1" parent="1" source="9ja5oFmownrn2EeYEFFG-125" target="9ja5oFmownrn2EeYEFFG-132">
          <mxGeometry relative="1" as="geometry">
            <Array as="points">
              <mxPoint x="1461" y="764" />
            </Array>
          </mxGeometry>
        </mxCell>
        <mxCell id="9ja5oFmownrn2EeYEFFG-139" value="" style="curved=1;startArrow=none;endArrow=block;exitX=0.5;exitY=1;entryX=1;entryY=0.31;rounded=0;" edge="1" parent="1" source="9ja5oFmownrn2EeYEFFG-123" target="9ja5oFmownrn2EeYEFFG-132">
          <mxGeometry relative="1" as="geometry">
            <Array as="points">
              <mxPoint x="2306" y="764" />
            </Array>
          </mxGeometry>
        </mxCell>
        <mxCell id="9ja5oFmownrn2EeYEFFG-140" value="" style="curved=1;dashed=1;dashPattern=2 3;startArrow=none;endArrow=block;exitX=0.5;exitY=1;entryX=0;entryY=0.04;rounded=0;" edge="1" parent="1" source="9ja5oFmownrn2EeYEFFG-128" target="9ja5oFmownrn2EeYEFFG-123">
          <mxGeometry relative="1" as="geometry">
            <Array as="points">
              <mxPoint x="2145" y="635" />
            </Array>
          </mxGeometry>
        </mxCell>
        <mxCell id="9ja5oFmownrn2EeYEFFG-141" value="" style="curved=1;dashed=1;dashPattern=2 3;startArrow=none;endArrow=block;exitX=0.5;exitY=1;entryX=0;entryY=0.31;rounded=0;" edge="1" parent="1" source="9ja5oFmownrn2EeYEFFG-127" target="9ja5oFmownrn2EeYEFFG-123">
          <mxGeometry relative="1" as="geometry">
            <Array as="points">
              <mxPoint x="1911" y="635" />
            </Array>
          </mxGeometry>
        </mxCell>
        <mxCell id="9ja5oFmownrn2EeYEFFG-142" value="" style="curved=1;dashed=1;dashPattern=2 3;startArrow=none;endArrow=block;exitX=0.5;exitY=1;entryX=0.8;entryY=0;rounded=0;" edge="1" parent="1" source="9ja5oFmownrn2EeYEFFG-129" target="9ja5oFmownrn2EeYEFFG-123">
          <mxGeometry relative="1" as="geometry">
            <Array as="points">
              <mxPoint x="2394" y="635" />
            </Array>
          </mxGeometry>
        </mxCell>
        <mxCell id="9ja5oFmownrn2EeYEFFG-143" value="" style="curved=1;dashed=1;dashPattern=2 3;startArrow=none;endArrow=block;exitX=0.5;exitY=1;entryX=1;entryY=0.28;rounded=0;" edge="1" parent="1" source="9ja5oFmownrn2EeYEFFG-130" target="9ja5oFmownrn2EeYEFFG-123">
          <mxGeometry relative="1" as="geometry">
            <Array as="points">
              <mxPoint x="2637" y="635" />
            </Array>
          </mxGeometry>
        </mxCell>
        <mxCell id="9ja5oFmownrn2EeYEFFG-144" value="" style="curved=1;startArrow=none;endArrow=block;rounded=0;" edge="1" parent="1" source="9ja5oFmownrn2EeYEFFG-122" target="9ja5oFmownrn2EeYEFFG-121">
          <mxGeometry relative="1" as="geometry">
            <Array as="points" />
          </mxGeometry>
        </mxCell>
        <mxCell id="9ja5oFmownrn2EeYEFFG-145" value="" style="curved=1;startArrow=none;endArrow=block;exitX=0;exitY=0.83;entryX=0.5;entryY=0;rounded=0;" edge="1" parent="1" source="9ja5oFmownrn2EeYEFFG-122" target="9ja5oFmownrn2EeYEFFG-116">
          <mxGeometry relative="1" as="geometry">
            <Array as="points">
              <mxPoint x="950" y="99" />
            </Array>
          </mxGeometry>
        </mxCell>
        <mxCell id="9ja5oFmownrn2EeYEFFG-146" value="" style="curved=1;startArrow=none;endArrow=block;rounded=0;" edge="1" parent="1" source="9ja5oFmownrn2EeYEFFG-121" target="9ja5oFmownrn2EeYEFFG-115">
          <mxGeometry relative="1" as="geometry">
            <Array as="points" />
          </mxGeometry>
        </mxCell>
        <mxCell id="9ja5oFmownrn2EeYEFFG-147" value="" style="curved=1;startArrow=none;endArrow=block;rounded=0;" edge="1" parent="1" source="9ja5oFmownrn2EeYEFFG-115" target="9ja5oFmownrn2EeYEFFG-131">
          <mxGeometry relative="1" as="geometry">
            <Array as="points" />
          </mxGeometry>
        </mxCell>
      </root>
    </mxGraphModel>
  </diagram>
</mxfile>
